<svg data-v-fde0c5aa="" xmlns="http://www.w3.org/2000/svg" viewBox="38 132 223 36" class="iconLeft"><!----><defs data-v-fde0c5aa=""><!----></defs><rect data-v-fde0c5aa="" fill="transparent" x="0" y="0" width="300px" height="300px" class="logo-background-square"></rect><defs data-v-fde0c5aa=""><!----></defs><g data-v-fde0c5aa="" id="66787f42-bb98-4f81-bee0-919306dca3e4" fill="#000000" transform="matrix(1.9661853736587473,0,0,1.9661853736587473,85.30442774563609,133.52336681250276)"><path d="M10.19 2.80L6.43 7.18L8.37 13.78L5.83 13.78L4.50 8.54L3.51 9.09L2.68 13.78L0.31 13.78L2.25 2.80L4.61 2.80L3.85 7.14L7.42 2.80L10.19 2.80ZM13.29 5.48L13.29 5.48Q14.61 5.48 15.34 6.03L15.34 6.03L15.34 6.03Q16.08 6.59 16.08 7.72L16.08 7.72L16.08 7.72Q16.08 8.05 16.02 8.42L16.02 8.42L15.07 13.78L13.07 13.78L13.18 12.66L13.05 12.66L13.05 12.66Q12.69 13.39 12.12 13.68L12.12 13.68L12.12 13.68Q11.55 13.96 11.02 13.96L11.02 13.96L11.02 13.96Q10.12 13.96 9.63 13.52L9.63 13.52L9.63 13.52Q9.13 13.09 9.13 12.28L9.13 12.28L9.13 12.28Q9.13 12.09 9.17 11.79L9.17 11.79L9.17 11.79Q9.30 11.12 9.65 10.61L9.65 10.61L9.65 10.61Q9.99 10.10 10.58 9.68L10.58 9.68L10.58 9.68Q11.79 8.86 13.81 8.50L13.81 8.50L13.86 8.33L13.86 8.33Q13.96 7.96 13.96 7.70L13.96 7.70L13.96 7.70Q13.96 7.40 13.78 7.26L13.78 7.26L13.78 7.26Q13.61 7.12 13.23 7.12L13.23 7.12L13.23 7.12Q12.68 7.12 12.27 7.46L12.27 7.46L12.27 7.46Q11.85 7.81 11.63 8.35L11.63 8.35L10.00 7.51L10.00 7.51Q10.45 6.47 11.31 5.97L11.31 5.97L11.31 5.97Q12.17 5.48 13.29 5.48L13.29 5.48ZM11.84 12.34L11.84 12.34Q12.23 12.34 12.62 12.07L12.62 12.07L12.62 12.07Q13.00 11.79 13.30 11.36L13.30 11.36L13.52 9.99L13.52 9.99Q12.75 10.12 12.18 10.51L12.18 10.51L12.18 10.51Q11.83 10.75 11.61 11.06L11.61 11.06L11.61 11.06Q11.39 11.37 11.33 11.69L11.33 11.69L11.33 11.69Q11.32 11.80 11.32 11.85L11.32 11.85L11.32 11.85Q11.32 12.08 11.46 12.21L11.46 12.21L11.46 12.21Q11.60 12.34 11.84 12.34L11.84 12.34ZM16.54 13.78L17.98 5.63L20.13 5.63L20.00 6.84L20.11 6.84L20.11 6.84Q20.90 5.48 22.29 5.48L22.29 5.48L22.29 5.48Q22.89 5.48 23.33 5.75L23.33 5.75L23.33 5.75Q23.78 6.02 24.02 6.51L24.02 6.51L24.02 6.51Q24.26 7.01 24.26 7.68L24.26 7.68L24.26 7.68Q24.26 8.00 24.20 8.37L24.20 8.37L23.24 13.78L20.92 13.78L21.86 8.46L21.86 8.46Q21.92 8.14 21.92 7.94L21.92 7.94L21.92 7.94Q21.92 7.57 21.76 7.42L21.76 7.42L21.76 7.42Q21.60 7.27 21.28 7.27L21.28 7.27L21.28 7.27Q20.71 7.27 20.29 7.71L20.29 7.71L20.29 7.71Q19.87 8.15 19.74 8.87L19.74 8.87L18.87 13.78L16.54 13.78ZM30.32 5.48L30.32 5.48Q31.38 5.48 32.00 6.20L32.00 6.20L32.00 6.20Q32.61 6.93 32.61 8.38L32.61 8.38L32.61 8.38Q32.61 9.04 32.46 9.87L32.46 9.87L32.46 9.87Q32.22 11.24 31.72 12.15L31.72 12.15L31.72 12.15Q31.23 13.07 30.54 13.51L30.54 13.51L30.54 13.51Q29.86 13.96 29.05 13.96L29.05 13.96L29.05 13.96Q28.58 13.96 28.19 13.77L28.19 13.77L28.19 13.77Q27.80 13.58 27.56 13.25L27.56 13.25L27.56 13.25Q27.31 12.92 27.25 12.52L27.25 12.52L27.17 12.52L26.85 13.78L24.73 13.78L26.66 2.80L28.99 2.80L28.29 6.85L28.33 6.85L28.33 6.85Q28.66 6.18 29.18 5.83L29.18 5.83L29.18 5.83Q29.70 5.48 30.32 5.48L30.32 5.48ZM30.17 9.52L30.17 9.52Q30.26 9.03 30.26 8.63L30.26 8.63L30.26 8.63Q30.26 8.03 30.05 7.73L30.05 7.73L30.05 7.73Q29.85 7.43 29.46 7.43L29.46 7.43L29.46 7.43Q28.83 7.43 28.37 8.07L28.37 8.07L28.37 8.07Q27.91 8.71 27.71 9.85L27.71 9.85L27.71 9.85Q27.61 10.41 27.61 10.83L27.61 10.83L27.61 10.83Q27.61 11.42 27.81 11.71L27.81 11.71L27.81 11.71Q28 12.01 28.38 12.01L28.38 12.01L28.38 12.01Q28.99 12.01 29.47 11.38L29.47 11.38L29.47 11.38Q29.96 10.75 30.17 9.52L30.17 9.52ZM36.91 5.48L36.91 5.48Q38.23 5.48 38.96 6.03L38.96 6.03L38.96 6.03Q39.70 6.59 39.70 7.72L39.70 7.72L39.70 7.72Q39.70 8.05 39.63 8.42L39.63 8.42L38.69 13.78L36.69 13.78L36.80 12.66L36.67 12.66L36.67 12.66Q36.31 13.39 35.74 13.68L35.74 13.68L35.74 13.68Q35.17 13.96 34.64 13.96L34.64 13.96L34.64 13.96Q33.74 13.96 33.24 13.52L33.24 13.52L33.24 13.52Q32.74 13.09 32.74 12.28L32.74 12.28L32.74 12.28Q32.74 12.09 32.79 11.79L32.79 11.79L32.79 11.79Q32.92 11.12 33.26 10.61L33.26 10.61L33.26 10.61Q33.61 10.10 34.20 9.68L34.20 9.68L34.20 9.68Q35.40 8.86 37.43 8.50L37.43 8.50L37.47 8.33L37.47 8.33Q37.58 7.96 37.58 7.70L37.58 7.70L37.58 7.70Q37.58 7.40 37.40 7.26L37.40 7.26L37.40 7.26Q37.23 7.12 36.85 7.12L36.85 7.12L36.85 7.12Q36.30 7.12 35.89 7.46L35.89 7.46L35.89 7.46Q35.47 7.81 35.25 8.35L35.25 8.35L33.62 7.51L33.62 7.51Q34.07 6.47 34.93 5.97L34.93 5.97L34.93 5.97Q35.79 5.48 36.91 5.48L36.91 5.48ZM35.46 12.34L35.46 12.34Q35.85 12.34 36.23 12.07L36.23 12.07L36.23 12.07Q36.62 11.79 36.91 11.36L36.91 11.36L37.14 9.99L37.14 9.99Q36.37 10.12 35.80 10.51L35.80 10.51L35.80 10.51Q35.45 10.75 35.23 11.06L35.23 11.06L35.23 11.06Q35.01 11.37 34.95 11.69L34.95 11.69L34.95 11.69Q34.94 11.80 34.94 11.85L34.94 11.85L34.94 11.85Q34.94 12.08 35.08 12.21L35.08 12.21L35.08 12.21Q35.22 12.34 35.46 12.34L35.46 12.34ZM40.16 13.78L41.60 5.63L43.75 5.63L43.61 6.84L43.73 6.84L43.73 6.84Q44.52 5.48 45.90 5.48L45.90 5.48L45.90 5.48Q46.50 5.48 46.95 5.75L46.95 5.75L46.95 5.75Q47.40 6.02 47.64 6.51L47.64 6.51L47.64 6.51Q47.88 7.01 47.88 7.68L47.88 7.68L47.88 7.68Q47.88 8.00 47.82 8.37L47.82 8.37L46.86 13.78L44.54 13.78L45.48 8.46L45.48 8.46Q45.53 8.14 45.53 7.94L45.53 7.94L45.53 7.94Q45.53 7.57 45.38 7.42L45.38 7.42L45.38 7.42Q45.22 7.27 44.90 7.27L44.90 7.27L44.90 7.27Q44.33 7.27 43.91 7.71L43.91 7.71L43.91 7.71Q43.49 8.15 43.36 8.87L43.36 8.87L42.49 13.78L40.16 13.78ZM51.60 13.78L53.53 2.80L57.31 2.80L57.31 2.80Q58.23 2.80 58.85 3.11L58.85 3.11L58.85 3.11Q59.47 3.42 59.78 3.97L59.78 3.97L59.78 3.97Q60.09 4.52 60.09 5.26L60.09 5.26L60.09 5.26Q60.09 5.59 60.03 5.95L60.03 5.95L60.03 5.95Q59.88 6.80 59.44 7.30L59.44 7.30L59.44 7.30Q59.00 7.81 58.21 8.01L58.21 8.01L58.03 8.10L58.03 8.10Q58.82 8.22 59.24 8.75L59.24 8.75L59.24 8.75Q59.66 9.28 59.66 10.14L59.66 10.14L59.66 10.14Q59.66 10.51 59.59 10.88L59.59 10.88L59.59 10.88Q59.34 12.27 58.40 13.03L58.40 13.03L58.40 13.03Q57.45 13.78 55.79 13.78L55.79 13.78L51.60 13.78ZM55.04 7.33L56.32 7.33L56.32 7.33Q56.67 7.33 57.00 7.15L57.00 7.15L57.00 7.15Q57.33 6.97 57.57 6.62L57.57 6.62L57.57 6.62Q57.81 6.28 57.89 5.82L57.89 5.82L57.89 5.82Q57.92 5.68 57.92 5.52L57.92 5.52L57.92 5.52Q57.92 4.71 56.93 4.71L56.93 4.71L55.51 4.71L55.04 7.33ZM54.24 11.92L55.64 11.92L55.64 11.92Q56.31 11.92 56.77 11.48L56.77 11.48L56.77 11.48Q57.22 11.03 57.36 10.27L57.36 10.27L57.36 10.27Q57.39 10.06 57.39 9.93L57.39 9.93L57.39 9.93Q57.39 9.45 57.11 9.22L57.11 9.22L57.11 9.22Q56.83 8.98 56.30 8.98L56.30 8.98L54.75 8.98L54.24 11.92ZM63.38 13.96L63.38 13.96Q61.99 13.96 61.23 13.19L61.23 13.19L61.23 13.19Q60.46 12.43 60.46 10.90L60.46 10.90L60.46 10.90Q60.46 10.34 60.59 9.57L60.59 9.57L60.59 9.57Q60.96 7.48 62.00 6.48L62.00 6.48L62.00 6.48Q63.03 5.48 64.60 5.48L64.60 5.48L64.60 5.48Q65.99 5.48 66.75 6.23L66.75 6.23L66.75 6.23Q67.50 6.98 67.50 8.50L67.50 8.50L67.50 8.50Q67.50 9.11 67.36 9.90L67.36 9.90L67.36 9.90Q67.00 11.96 65.98 12.96L65.98 12.96L65.98 12.96Q64.96 13.96 63.38 13.96L63.38 13.96ZM63.39 12.22L63.39 12.22Q63.82 12.22 64.16 11.98L64.16 11.98L64.16 11.98Q64.49 11.74 64.76 11.15L64.76 11.15L64.76 11.15Q65.02 10.56 65.20 9.56L65.20 9.56L65.20 9.56Q65.34 8.78 65.34 8.26L65.34 8.26L65.34 8.26Q65.34 7.66 65.14 7.43L65.14 7.43L65.14 7.43Q64.94 7.20 64.54 7.20L64.54 7.20L64.54 7.20Q64.13 7.20 63.81 7.43L63.81 7.43L63.81 7.43Q63.49 7.67 63.22 8.26L63.22 8.26L63.22 8.26Q62.96 8.85 62.78 9.88L62.78 9.88L62.78 9.88Q62.64 10.64 62.64 11.15L62.64 11.15L62.64 11.15Q62.64 11.75 62.83 11.98L62.83 11.98L62.83 11.98Q63.02 12.22 63.39 12.22L63.39 12.22ZM71.78 5.48L71.78 5.48Q73.10 5.48 73.84 6.03L73.84 6.03L73.84 6.03Q74.57 6.59 74.57 7.72L74.57 7.72L74.57 7.72Q74.57 8.05 74.51 8.42L74.51 8.42L73.57 13.78L71.57 13.78L71.67 12.66L71.54 12.66L71.54 12.66Q71.19 13.39 70.62 13.68L70.62 13.68L70.62 13.68Q70.05 13.96 69.51 13.96L69.51 13.96L69.51 13.96Q68.62 13.96 68.12 13.52L68.12 13.52L68.12 13.52Q67.62 13.09 67.62 12.28L67.62 12.28L67.62 12.28Q67.62 12.09 67.67 11.79L67.67 11.79L67.67 11.79Q67.79 11.12 68.14 10.61L68.14 10.61L68.14 10.61Q68.49 10.10 69.08 9.68L69.08 9.68L69.08 9.68Q70.28 8.86 72.30 8.50L72.30 8.50L72.35 8.33L72.35 8.33Q72.45 7.96 72.45 7.70L72.45 7.70L72.45 7.70Q72.45 7.40 72.28 7.26L72.28 7.26L72.28 7.26Q72.11 7.12 71.73 7.12L71.73 7.12L71.73 7.12Q71.18 7.12 70.76 7.46L70.76 7.46L70.76 7.46Q70.35 7.81 70.12 8.35L70.12 8.35L68.50 7.51L68.50 7.51Q68.95 6.47 69.81 5.97L69.81 5.97L69.81 5.97Q70.66 5.48 71.78 5.48L71.78 5.48ZM70.33 12.34L70.33 12.34Q70.72 12.34 71.11 12.07L71.11 12.07L71.11 12.07Q71.50 11.79 71.79 11.36L71.79 11.36L72.02 9.99L72.02 9.99Q71.24 10.12 70.68 10.51L70.68 10.51L70.68 10.51Q70.33 10.75 70.11 11.06L70.11 11.06L70.11 11.06Q69.88 11.37 69.83 11.69L69.83 11.69L69.83 11.69Q69.82 11.80 69.82 11.85L69.82 11.85L69.82 11.85Q69.82 12.08 69.96 12.21L69.96 12.21L69.96 12.21Q70.10 12.34 70.33 12.34L70.33 12.34ZM75.04 13.78L76.47 5.63L78.44 5.63L78.31 6.85L78.41 6.85L78.41 6.85Q78.74 6.15 79.14 5.82L79.14 5.82L79.14 5.82Q79.54 5.49 80.06 5.49L80.06 5.49L80.06 5.49Q80.47 5.49 80.88 5.64L80.88 5.64L80.50 7.78L80.50 7.78Q80.26 7.72 80.04 7.72L80.04 7.72L80.04 7.72Q79.30 7.72 78.77 8.27L78.77 8.27L78.77 8.27Q78.25 8.81 78.05 9.91L78.05 9.91L77.37 13.78L75.04 13.78ZM86.51 2.80L88.85 2.80L86.91 13.78L84.79 13.78L84.92 12.61L84.84 12.61L84.84 12.61Q84.54 13.25 83.99 13.60L83.99 13.60L83.99 13.60Q83.43 13.96 82.80 13.96L82.80 13.96L82.80 13.96Q81.71 13.96 81.09 13.21L81.09 13.21L81.09 13.21Q80.47 12.47 80.47 11.02L80.47 11.02L80.47 11.02Q80.47 10.35 80.61 9.54L80.61 9.54L80.61 9.54Q80.86 8.16 81.35 7.25L81.35 7.25L81.35 7.25Q81.85 6.34 82.51 5.91L82.51 5.91L82.51 5.91Q83.17 5.48 83.96 5.48L83.96 5.48L83.96 5.48Q84.67 5.48 85.12 5.88L85.12 5.88L85.12 5.88Q85.58 6.29 85.69 6.93L85.69 6.93L85.80 6.93L86.51 2.80ZM83.60 12.01L83.60 12.01Q84.23 12.01 84.69 11.36L84.69 11.36L84.69 11.36Q85.16 10.71 85.37 9.52L85.37 9.52L85.37 9.52Q85.46 8.98 85.46 8.60L85.46 8.60L85.46 8.60Q85.46 8.03 85.27 7.73L85.27 7.73L85.27 7.73Q85.07 7.43 84.69 7.43L84.69 7.43L84.69 7.43Q84.29 7.43 83.94 7.70L83.94 7.70L83.94 7.70Q83.58 7.97 83.31 8.51L83.31 8.51L83.31 8.51Q83.04 9.06 82.91 9.85L82.91 9.85L82.91 9.85Q82.81 10.37 82.81 10.81L82.81 10.81L82.81 10.81Q82.81 11.42 83.02 11.72L83.02 11.72L83.02 11.72Q83.22 12.01 83.60 12.01L83.60 12.01Z"></path></g><defs data-v-fde0c5aa=""><!----></defs><g data-v-fde0c5aa="" id="4c8e40b2-702b-4964-8cf2-90b212e65e8c" stroke="none" fill="#0E0E0E" transform="matrix(0.32913945216158047,0,0,0.32913945216158047,36.70860547838419,130.25163412587253)"><path d="M69.4 39.2H50.6c-1.7 0-3.1 1.5-3.1 3.1v56.2c0 1.7 1.5 3.1 3.1 3.1h18.8c1.7 0 3.1-1.5 3.1-3.1V42.3c0-1.7-1.5-3.1-3.1-3.1zM31.9 39.2H13.1c-1.7 0-3.1 1.5-3.1 3.1v64.6c0 1.7 1.5 3.1 3.1 3.1h18.8c1.7 0 3.1-1.5 3.1-3.1V42.3c0-1.7-1.5-3.1-3.1-3.1zM106.9 10H13.1c-1.7 0-3.1 1.5-3.1 3.1v10.4c0 1.7 1.5 3.1 3.1 3.1h93.8c1.7 0 3.1-1.5 3.1-3.1V13.1c0-1.6-1.5-3.1-3.1-3.1zM106.9 39.2H88.1c-1.7 0-3.1 1.5-3.1 3.1v47.9c0 1.7 1.5 3.1 3.1 3.1h18.8c1.7 0 3.1-1.5 3.1-3.1V42.3c0-1.7-1.5-3.1-3.1-3.1z"></path></g><!----></svg>